<?xml version="1.0" encoding="UTF-8" standalone="no"?>
<svg
   version="1.1"
   x="0px"
   y="0px"
   viewBox="0 0 3000 3000"
   enable-background="new 0 0 100 100"
   xml:space="preserve"
   id="svg4"
   width="3000"
   height="3000"
   xmlns:xlink="http://www.w3.org/1999/xlink"
   xmlns="http://www.w3.org/2000/svg"
   xmlns:svg="http://www.w3.org/2000/svg"><defs
     id="defs4"><linearGradient
       id="linearGradient1"><stop
         style="stop-color:#d4ff02;stop-opacity:1;"
         offset="0"
         id="stop1" /><stop
         style="stop-color:#2b00f8;stop-opacity:1;"
         offset="0.86118978"
         id="stop2" /></linearGradient><linearGradient
       xlink:href="#linearGradient1"
       id="linearGradient2"
       x1="1161.501"
       y1="1156.6122"
       x2="1219.4324"
       y2="1223.2374"
       gradientUnits="userSpaceOnUse" /></defs><g
     id="g3"
     transform="matrix(32.955952,0,0,32.967262,-37721.521,-37728.17)"
     style="fill:#000000"><path
       fill-rule="evenodd"
       clip-rule="evenodd"
       d="m 1174.784,1175.7589 -4.884,2.82 v 5.7 l 4.884,2.75 4.879,-2.761 v -5.69 z m 29.196,0 -4.884,2.82 -0.056,5.708 4.94,2.743 4.885,-2.75 v -5.7 z m -14.699,25.402 -4.884,2.68 v 5.7 l 4.884,2.75 4.885,-2.75 v -5.7 z m -36.614,8.822 26.888,-15.585 -10e-4,-10.066 8.703,-5.059 0.013,-31.596 -3.856,-2.054 c -12.149,1.686 -22.807,8.186 -29.818,17.539 l 0.053,5.701 -5.017,2.764 c -2.667,5.604 -4.08,11.805 -4.08,18.326 0,6.521 0.851,12.335 3.27,17.832 z m 41.54,24.306 c 12.944,-1.154 24.283,-7.889 31.705,-17.767 l -0.203,-4.412 -27.618,-15.877 -8.81,4.927 -8.677,-4.899 -27.07,15.658 0.059,4.224 c 7.077,9.285 18.743,16.453 30.835,18.061 l 4.853,-2.774 z m -3.884,-55.015 8.717,5.009 0.036,10.147 27.519,15.883 4.243,-2.277 c 2.466,-5.494 3.849,-11.633 3.849,-18.084 0,-6.612 -1.453,-12.895 -4.245,-18.554 l -5.075,-2.757 0.103,-5.672 c -7.265,-9.633 -18.481,-16.215 -31.264,-17.432 l -3.865,2.121 z"
       id="path1"
       style="fill:url(#linearGradient2);fill-opacity:1" /><rect
       x="39.436001"
       y="44.349998"
       fill-rule="evenodd"
       clip-rule="evenodd"
       width="0.107"
       height="0.124"
       id="rect1"
       style="fill:#000000" /><rect
       x="58.916"
       y="44.365002"
       fill-rule="evenodd"
       clip-rule="evenodd"
       width="0.0040000002"
       height="0.013"
       id="rect2"
       style="fill:#000000" /><rect
       x="49.159"
       y="61.242001"
       fill-rule="evenodd"
       clip-rule="evenodd"
       width="0.0040000002"
       height="0.012"
       id="rect3"
       style="fill:#000000" /></g></svg>
